<svg width="69" height="44" viewBox="0 0 69 44" fill="none" xmlns="http://www.w3.org/2000/svg">
<path d="M65.8269 14.0305L64.0249 12.2285C60.1518 8.34561 55.5496 5.26641 50.4827 3.16784C45.4158 1.06928 39.9841 -0.00728226 34.4999 3.70725e-05C29.0156 -0.00728226 23.5839 1.06928 18.517 3.16784C13.4501 5.26641 8.8479 8.34561 4.97484 12.2285L3.17284 14.0305C2.16694 15.0361 1.36901 16.2301 0.824607 17.5441C0.280205 18.8582 0 20.2666 0 21.689C0 23.1113 0.280205 24.5198 0.824607 25.8338C1.36901 27.1479 2.16694 28.3418 3.17284 29.3475L4.97484 31.1494C8.8479 35.0323 13.4501 38.1115 18.517 40.2101C23.5839 42.3087 29.0156 43.3852 34.4999 43.3779C39.9841 43.3852 45.4158 42.3087 50.4827 40.2101C55.5496 38.1115 60.1518 35.0323 64.0249 31.1494L65.8269 29.3475C66.8328 28.3418 67.6307 27.1479 68.1751 25.8338C68.7195 24.5198 68.9997 23.1113 68.9997 21.689C68.9997 20.2666 68.7195 18.8582 68.1751 17.5441C67.6307 16.2301 66.8328 15.0361 65.8269 14.0305ZM34.4999 4.36208C35.0743 4.36208 35.6252 4.59027 36.0313 4.99645C36.4375 5.40262 36.6657 5.95352 36.6657 6.52794C36.6657 7.10236 36.4375 7.65326 36.0313 8.05944C35.6252 8.46561 35.0743 8.6938 34.4999 8.6938C32.2022 8.6938 29.9986 9.60655 28.3739 11.2313C26.7492 12.856 25.8364 15.0596 25.8364 17.3572C25.8364 17.9317 25.6082 18.4826 25.202 18.8887C24.7959 19.2949 24.245 19.5231 23.6705 19.5231C23.0961 19.5231 22.5452 19.2949 22.139 18.8887C21.7329 18.4826 21.5047 17.9317 21.5047 17.3572C21.5047 13.9107 22.8738 10.6053 25.3109 8.16828C27.7479 5.73121 31.0533 4.36208 34.4999 4.36208ZM62.7643 26.2849L60.9623 28.0869C57.4954 31.573 53.3714 34.3366 48.8291 36.2178C44.2867 38.0989 39.4163 39.0603 34.4999 39.0462C29.5834 39.0603 24.713 38.0989 20.1706 36.2178C15.6283 34.3366 11.5043 31.573 8.03737 28.0869L6.23537 26.2849C5.63076 25.6823 5.15144 24.9659 4.82506 24.1771C4.49868 23.3883 4.33169 22.5426 4.33374 21.689C4.33169 20.8353 4.49868 19.9897 4.82506 19.2009C5.15144 18.4121 5.63076 17.6957 6.23537 17.093L8.03737 15.291C11.6482 11.6769 15.962 8.84186 20.712 6.96111C18.4261 9.94564 17.1828 13.5979 17.173 17.3572C17.173 21.9526 18.9985 26.3598 22.2479 29.6092C25.4973 32.8586 29.9045 34.6841 34.4999 34.6841C39.0952 34.6841 43.5024 32.8586 46.7518 29.6092C50.0012 26.3598 51.8267 21.9526 51.8267 17.3572C51.8169 13.5979 50.5736 9.94564 48.2877 6.96111C53.0377 8.84186 57.3515 11.6769 60.9623 15.291L62.7643 17.093C63.3689 17.6957 63.8483 18.4121 64.1746 19.2009C64.501 19.9897 64.668 20.8353 64.666 21.689C64.668 22.5426 64.501 23.3883 64.1746 24.1771C63.8483 24.9659 63.3689 25.6823 62.7643 26.2849Z" fill="black"/>
</svg>
