<svg width="100" height="100" viewBox="0 0 100 100" fill="none" xmlns="http://www.w3.org/2000/svg">
<circle cx="50" cy="50" r="50" fill="#D9D9D9"/>
<path d="M63.7778 69.8571H81M46.5556 78H30.0222C26.1641 78 24.235 78 22.7614 77.1124C21.4652 76.3319 20.4113 75.0861 19.7509 73.554C19 71.8122 19 69.5318 19 64.9714V34.0286C19 29.4682 19 27.1879 19.7509 25.4461C20.4113 23.9139 21.4652 22.6682 22.7614 21.8875C24.235 21 26.1641 21 30.0222 21H69.9778C73.8359 21 75.7651 21 77.2387 21.8875C78.5348 22.6682 79.5888 23.9139 80.2491 25.4461C81 27.1879 81 29.4682 81 34.0286V45.4286M79.6453 34.2822L62.2274 48.0078C57.8082 51.4901 55.5986 53.2315 53.2102 53.9081C51.0995 54.5058 48.8992 54.5058 46.7887 53.9081C44.4004 53.2315 42.1907 51.4901 37.7714 48.0078L19.5079 33.6159" stroke="black" stroke-width="5" stroke-linecap="round" stroke-linejoin="round"/>
</svg>
