<svg width="100" height="100" viewBox="0 0 100 100" fill="none" xmlns="http://www.w3.org/2000/svg">
<circle cx="50" cy="50" r="50" fill="#D9D9D9"/>
<path d="M77 17L10.2055 45.7096C9.50171 46.0119 9.03219 46.7063 9.00159 47.4895C8.97099 48.273 9.38443 49.0038 10.0624 49.3634L26.9528 58.3235L29.0758 77.4642C29.206 78.6342 30.004 79.5897 31.109 79.8997C31.3477 79.9658 31.5938 80 31.841 80C32.7097 80 33.5403 79.574 34.0636 78.8614L42.9144 66.7916L63.721 77.8287C64.2742 78.1216 64.93 78.1282 65.4883 77.8451C66.0466 77.5624 66.4413 77.0246 66.5522 76.3948L77 17ZM28.6573 54.4321L16.1245 47.7838L60.8653 28.5532L28.6573 54.4321ZM32.808 73.4942L31.078 57.8954L63.1362 32.1368L32.808 73.4942ZM45.4461 63.3388L70.6913 28.9132L62.9978 72.6506L45.4461 63.3388Z" fill="black"/>
</svg>
