<svg width="205" height="201" viewBox="0 0 205 201" fill="none" xmlns="http://www.w3.org/2000/svg">
<ellipse cx="102.5" cy="100.5" rx="102.5" ry="100.5" fill="#A9D3EA"/>
<path d="M182.429 150.789L150.672 120.238L144.5 126.175L127.219 109.55L98.3594 137.314L101.766 140.59L127.219 116.104L144.5 132.729L150.672 126.792L175.616 150.789H108.366L76.6094 120.238L59.3284 136.863L54.3906 132.113L34.9776 150.789H26V155.423H184V150.789H182.429ZM41.7901 150.789L54.3906 138.667L59.3281 143.417L76.6091 126.791L101.554 150.789H41.7901Z" fill="black"/>
<path d="M132.216 22.5771C132.216 38.3463 118.881 51.1751 102.49 51.1751C86.098 51.1751 72.7625 38.3463 72.7625 22.5771H67.9453C67.9453 40.9015 83.442 55.8093 102.49 55.8093C121.537 55.8093 137.034 40.9015 137.034 22.5771H132.216Z" fill="black"/>
<path d="M71.6719 98.6351C70.9581 98.6351 70.3773 98.0761 70.3773 97.3897C70.3773 94.1476 67.6358 91.5101 64.2656 91.5101H33.4062V96.1444H64.2656C64.9791 96.1444 65.5602 96.7034 65.5602 97.3897C65.5602 100.632 68.3017 103.269 71.6719 103.269H77.8438V98.6351H71.6719Z" fill="black"/>
<path d="M107.569 98.5771H82.8414V103.211H107.569V98.5771Z" fill="black"/>
<path d="M87.6586 108.154H53.2967V112.789H87.6586V108.154Z" fill="black"/>
<path d="M97.6138 108.154H92.7967V112.789H97.6138V108.154Z" fill="black"/>
<path d="M90.2276 89H77.7033V93.6342H90.2276V89Z" fill="black"/>
<path d="M139.563 72.5101C138.168 72.5101 137.034 71.4185 137.034 70.0772C137.034 66.1805 133.738 63.0101 129.688 63.0101H102.531V67.6444H129.688C131.082 67.6444 132.216 68.736 132.216 70.0772C132.216 73.974 135.512 77.1444 139.563 77.1444H166.719V72.5101H139.563Z" fill="black"/>
<path d="M124.59 72.6261H95.0448V77.2603H124.59V72.6261Z" fill="black"/>
<path d="M144.5 81.8943H117.203V86.5285H144.5V81.8943Z" fill="black"/>
<path d="M156.703 81.8943H149.317V86.5285H156.703V81.8943Z" fill="black"/>
<path d="M149.317 65.5205H141.931V70.1547H149.317V65.5205Z" fill="black"/>
</svg>
